:FULLY-SPECIFIED
:FORCE-ALL-JOINTS-BE-3DOF
:DEGREES
49
root 8.46777 15.7914 -29.7321 7.28658 -9.49002 -5.56801
lfemur -40.8526 8.40183 -14.5311
ltibia 34.5743 0 0
lfoot -0.237467 7.38027 0
ltoes -2.92833 0 0
rfemur 20.2604 5.40663 26.3907
rtibia 6.62795 0 0
rfoot -4.38265 -0.661959 0
rtoes -27.9947 0 0
lowerback -8.44088 1.02449 1.8929
upperback -1.2375 0.999495 3.95202
thorax 3.43268 0.503007 3.16828
lowerneck -21.5121 -4.55432 -12.3204
upperneck 16.4342 -5.48765 14.2437
head 9.50385 -1.81443 6.27749
lclavicle -3.18832e-14 -4.59722e-14 0
lhumerus -42.5038 -7.82526 91.4533
lradius 23.2079 0 0
lwrist -0.499821 0 0
lhand 5.81311 -17.7613 0
lfingers 7.12502 0 0
lthumb 31.141 9.57229 0
rclavicle -3.18832e-14 -4.59722e-14 0
rhumerus -45.9419 19.3033 -93.9111
rradius 54.1783 0 0
rwrist -26.1203 0 0
rhand -30.7027 -33.651 0
rfingers 7.12502 0 0
rthumb -3.99609 -63.5939 0
50
root 8.49294 15.8088 -29.6023 7.20145 -9.54729 -5.38219
lfemur -40.3165 8.27257 -14.8469
ltibia 34.4318 0 0
lfoot -0.54452 7.45579 0
ltoes -2.80792 0 0
rfemur 19.3721 5.26614 26.2055
rtibia 8.05312 0 0
rfoot -4.70757 -0.968985 0
rtoes -27.6774 0 0
lowerback -8.36531 0.980912 1.75857
upperback -1.24383 0.951683 3.926
thorax 3.38677 0.479167 3.21325
lowerneck -21.5597 -4.53129 -12.2926
upperneck 16.5296 -5.45173 14.1727
head 9.53714 -1.80167 6.25544
lclavicle -3.17033e-14 -4.49871e-14 0
lhumerus -42.13 -7.93974 91.3399
lradius 23.2299 0 0
lwrist -0.511798 0 0
lhand 5.51828 -17.8605 0
lfingers 7.12502 0 0
lthumb 30.8585 9.51208 0
rclavicle -3.17033e-14 -4.49871e-14 0
rhumerus -45.9178 19.1958 -93.8622
rradius 53.8265 0 0
rwrist -26.0062 0 0
rhand -30.6916 -33.428 0
rfingers 7.12502 0 0
rthumb -3.98535 -63.3712 0
51
root 8.51811 15.8263 -29.4726 7.11156 -9.59781 -5.18492
lfemur -39.7551 8.13464 -15.1812
ltibia 34.2937 0 0
lfoot -0.882337 7.5371 0
ltoes -2.68977 0 0
rfemur 18.4082 5.11667 26.0155
rtibia 9.57409 0 0
rfoot -5.04445 -1.2914 0
rtoes -27.3139 0 0
lowerback -8.28125 0.934423 1.61644
upperback -1.2508 0.900804 3.89723
thorax 3.33558 0.453806 3.25946
lowerneck -21.6071 -4.50757 -12.2642
upperneck 16.6269 -5.41494 14.1007
head 9.57101 -1.78863 6.23317
lclavicle -3.14727e-14 -4.38853e-14 0
lhumerus -41.7296 -8.05413 91.2145
lradius 23.2562 0 0
lwrist -0.517232 0 0
lhand 5.1886 -17.9701 0
lfingers 7.12502 0 0
lthumb 30.5426 9.44577 0
rclavicle -3.14727e-14 -4.38853e-14 0
rhumerus -45.8849 19.0814 -93.8013
rradius 53.4588 0 0
rwrist -25.889 0 0
rhand -30.6825 -33.1853 0
rfingers 7.12502 0 0
rthumb -3.97659 -63.1287 0
52
root 8.54328 15.8437 -29.3429 7.0173 -9.64154 -4.97701
lfemur -39.1694 7.98865 -15.5325
ltibia 34.1592 0 0
lfoot -1.24883 7.62353 0
ltoes -2.57403 0 0
rfemur 17.3733 4.95916 25.8208
rtibia 11.1829 0 0
rfoot -5.39245 -1.62802 0
rtoes -26.9076 0 0
lowerback -8.18936 0.885172 1.46703
upperback -1.25837 0.847005 3.86589
thorax 3.27953 0.426994 3.30679
lowerneck -21.6543 -4.48324 -12.2354
upperneck 16.7262 -5.37741 14.028
head 9.60542 -1.77535 6.2107
lclavicle -3.11952e-14 -4.26751e-14 0
lhumerus -41.3046 -8.16865 91.078
lradius 23.2867 0 0
lwrist -0.51626 0 0
lhand 4.82635 -18.0896 0
lfingers 7.12502 0 0
lthumb 30.1954 9.37373 0
rclavicle -3.11952e-14 -4.26751e-14 0
rhumerus -45.8438 18.9605 -93.729
rradius 53.0764 0 0
rwrist -25.7688 0 0
rhand -30.6754 -32.9241 0
rfingers 7.12502 0 0
rthumb -3.96968 -62.8678 0
53
root 8.56845 15.8612 -29.2131 6.91907 -9.67844 -4.75921
lfemur -38.5608 7.83518 -15.8994
ltibia 34.0276 0 0
lfoot -1.64189 7.71443 0
ltoes -2.46084 0 0
rfemur 16.2724 4.79454 25.6217
rtibia 12.8717 0 0
rfoot -5.75073 -1.97765 0
rtoes -26.4617 0 0
lowerback -8.09029 0.833304 1.31088
upperback -1.26648 0.790433 3.83215
thorax 3.21903 0.398801 3.35515
lowerneck -21.701 -4.45841 -12.2062
upperneck 16.8272 -5.33927 13.9545
head 9.64029 -1.7619 6.18807
lclavicle -3.08745e-14 -4.13649e-14 0
lhumerus -40.8571 -8.28353 90.9316
lradius 23.3217 0 0
lwrist -0.50902 0 0
lhand 4.43384 -18.2181 0
lfingers 7.12502 0 0
lthumb 29.8192 9.29634 0
rclavicle -3.08745e-14 -4.13649e-14 0
rhumerus -45.795 18.8333 -93.6458
rradius 52.6804 0 0
rwrist -25.6458 0 0
rhand -30.67 -32.646 0
rfingers 7.12502 0 0
rthumb -3.9645 -62.5898 0
54
root 8.59362 15.8786 -29.0834 6.81727 -9.70849 -4.53232
lfemur -37.9302 7.67484 -16.2806
ltibia 33.898 0 0
lfoot -2.05945 7.80915 0
ltoes -2.35034 0 0
rfemur 15.1102 4.62372 25.4182
rtibia 14.6325 0 0
rfoot -6.11842 -2.33908 0
rtoes -25.9795 0 0
lowerback -7.98471 0.778967 1.1485
upperback -1.27508 0.731237 3.79619
thorax 3.15451 0.369298 3.40443
lowerneck -21.7473 -4.43318 -12.1767
upperneck 16.9297 -5.30065 13.8804
head 9.67556 -1.74834 6.16529
lclavicle -3.05144e-14 -3.9963e-14 0
lhumerus -40.389 -8.39898 90.7762
lradius 23.3611 0 0
lwrist -0.495649 0 0
lhand 4.01333 -18.3551 0
lfingers 7.12502 0 0
lthumb 29.4162 9.21399 0
rclavicle -3.05144e-14 -3.9963e-14 0
rhumerus -45.7393 18.7001 -93.5524
rradius 52.2719 0 0
rwrist -25.5203 0 0
rhand -30.6663 -32.3522 0
rfingers 7.12502 0 0
rthumb -3.96091 -62.2962 0
55
root 8.6188 15.8961 -28.9537 6.7123 -9.73165 -4.2971
lfemur -37.279 7.5082 -16.6746
ltibia 33.7695 0 0
lfoot -2.4994 7.90704 0
ltoes -2.24267 0 0
rfemur 13.8916 4.44763 25.2104
rtibia 16.4573 0 0
rfoot -6.4947 -2.71114 0
rtoes -25.4642 0 0
lowerback -7.87326 0.722307 0.980424
upperback -1.28412 0.669565 3.75817
thorax 3.0864 0.338556 3.45452
lowerneck -21.7929 -4.40766 -12.1471
upperneck 17.0335 -5.26169 13.8059
head 9.71118 -1.73472 6.14241
lclavicle -3.01189e-14 -3.84776e-14 0
lhumerus -39.9022 -8.51525 90.613
lradius 23.4051 0 0
lwrist -0.476286 0 0
lhand 3.56713 -18.4998 0
lfingers 7.12502 0 0
lthumb 28.9886 9.12706 0
rclavicle -3.01189e-14 -3.84776e-14 0
rhumerus -45.6771 18.5614 -93.4493
rradius 51.852 0 0
rwrist -25.3925 0 0
rhand -30.6641 -32.0442 0
rfingers 7.12502 0 0
rthumb -3.95879 -61.9882 0
56
root 8.64397 15.9135 -28.8239 6.60456 -9.7479 -4.05435
lfemur -36.6083 7.33587 -17.0802
ltibia 33.6415 0 0
lfoot -2.95965 8.00743 0
ltoes -2.13797 0 0
rfemur 12.6213 4.26721 24.9985
rtibia 18.3383 0 0
rfoot -6.8787 -3.09262 0
rtoes -24.9192 0 0
lowerback -7.7566 0.663471 0.807171
upperback -1.29355 0.605562 3.71828
thorax 3.01511 0.306645 3.50532
lowerneck -21.8378 -4.38193 -12.1174
upperneck 17.1385 -5.22252 13.7309
head 9.74707 -1.7211 6.11946
lclavicle -2.96916e-14 -3.69171e-14 0
lhumerus -39.3989 -8.63254 90.443
lradius 23.4537 0 0
lwrist -0.451069 0 0
lhand 3.09751 -18.6516 0
lfingers 7.12502 0 0
lthumb 28.5385 9.03593 0
rclavicle -2.96916e-14 -3.69171e-14 0
rhumerus -45.6092 18.4175 -93.3372
rradius 51.4218 0 0
rwrist -25.2625 0 0
rhand -30.6633 -31.7233 0
rfingers 7.12502 0 0
rthumb -3.95801 -61.6673 0
